<mxfile host="app.diagrams.net" modified="2024-05-14T11:29:46.375Z" agent="Mozilla/5.0 (Windows NT 10.0; Win64; x64) AppleWebKit/537.36 (KHTML, like Gecko) Chrome/124.0.0.0 Safari/537.36" version="24.4.0" etag="YJv1gQvfzSFHlTTog-Ey" type="github">
  <diagram name="Страница — 1" id="tZH1cFebTro1zC8Fu0a_">
    <mxGraphModel>
      <root>
        <mxCell id="0" />
        <mxCell id="1" parent="0" />
      </root>
    </mxGraphModel>
  </diagram>
</mxfile>
